<?xml version="1.0" standalone="no"?>
<!DOCTYPE svg PUBLIC "-//W3C//DTD SVG 20010904//EN"
 "http://www.w3.org/TR/2001/REC-SVG-20010904/DTD/svg10.dtd">
<svg version="1.0" xmlns="http://www.w3.org/2000/svg"
 width="460.000000pt" height="460.000000pt" viewBox="0 0 460.000000 460.000000"
 preserveAspectRatio="xMidYMid meet">
<metadata>
Created by potrace 1.14, written by Peter Selinger 2001-2017
</metadata>
<g transform="translate(0.000000,460.000000) scale(0.100000,-0.100000)"
fill="#000000" stroke="none">
<path d="M2274 4278 c-41 -36 -73 -98 -74 -140 0 -32 -11 -43 -91 -88 -69 -38
-223 -185 -266 -253 -119 -189 -159 -377 -115 -547 13 -50 22 -66 37 -69 26
-4 30 -12 60 -106 37 -119 112 -240 206 -332 78 -77 80 -80 91 -144 11 -62 10
-68 -15 -119 -15 -30 -27 -61 -27 -70 0 -8 -26 -49 -59 -89 -65 -83 -151 -235
-183 -327 l-22 -61 -465 -6 c-255 -4 -592 -7 -747 -7 -156 0 -285 -4 -288 -9
-5 -8 77 -416 129 -641 13 -58 24 -108 25 -112 0 -5 -106 -8 -235 -8 -228 0
-235 -1 -235 -20 0 -19 7 -20 238 -20 l239 0 32 -147 c64 -299 82 -377 85
-380 2 -2 468 -3 1037 -3 l1034 0 68 72 c37 40 91 101 120 136 l52 62 45 -6
c25 -3 92 -21 150 -39 140 -44 212 -55 366 -55 145 0 213 10 324 47 170 57
289 131 403 252 l58 61 175 0 c167 0 174 1 174 20 0 19 -7 20 -164 20 l-165 0
33 48 c43 65 92 216 107 330 11 89 6 174 -18 294 -5 26 -3 28 24 28 16 0 34 5
41 12 89 89 -383 1000 -631 1218 -20 17 -50 55 -66 84 -17 28 -39 62 -50 75
-11 12 -29 53 -41 89 -41 128 -154 323 -244 422 -146 161 -316 293 -454 354
-139 61 -332 92 -420 67 -41 -12 -43 5 -6 42 26 26 25 47 -1 47 -38 0 -129
-45 -167 -83 l-41 -41 6 87 c6 81 5 87 -13 87 -11 0 -36 -15 -56 -32z m15 -55
c-13 -20 -31 -60 -40 -88 -10 -27 -18 -40 -18 -29 -1 33 27 106 51 131 31 33
33 28 7 -14z m389 -299 c100 -35 163 -74 240 -148 57 -56 142 -177 142 -203 0
-6 10 -13 21 -16 15 -4 20 -11 15 -22 -3 -10 -1 -35 6 -56 9 -31 9 -42 -1 -52
-10 -9 -11 -9 -6 4 4 12 -8 23 -49 45 -45 23 -58 36 -70 69 -44 113 -168 188
-275 164 -50 -11 -121 -57 -145 -94 -10 -14 -23 -48 -29 -76 -12 -48 -12 -49
-50 -49 -21 0 -51 -7 -67 -15 -28 -14 -29 -14 -51 18 -63 91 -112 119 -210
119 -77 -1 -166 -59 -205 -133 -24 -47 -31 -164 -11 -211 15 -36 15 -36 -26
-102 -23 -36 -45 -66 -48 -66 -11 0 -29 122 -29 194 0 179 75 355 205 479 33
32 77 67 98 78 20 10 37 26 37 34 0 8 3 15 8 16 4 0 21 2 37 3 83 8 151 20
162 28 7 6 24 7 37 4 13 -3 35 -2 48 3 45 19 137 12 216 -15z m157 -271 c44
-22 75 -53 91 -92 8 -18 14 -35 14 -36 0 -2 -24 3 -52 11 -107 28 -223 13
-277 -36 -26 -24 -31 -36 -31 -72 0 -61 60 -142 90 -123 6 4 9 1 8 -7 -2 -7 5
-12 15 -12 9 1 17 -2 17 -7 0 -5 12 -10 28 -10 24 -2 24 -2 4 -6 -33 -6 -106
32 -137 73 -56 73 -67 135 -39 217 36 105 164 152 269 100z m-614 -88 c24 -9
54 -26 68 -38 33 -31 61 -95 60 -142 l0 -40 -15 27 c-49 90 -179 73 -293 -39
-40 -39 -68 -60 -74 -54 -5 5 -12 29 -14 54 -11 95 53 198 142 231 52 19 73
19 126 1z m1396 -195 c44 -107 59 -172 45 -196 -11 -18 -11 -17 -12 5 0 35
-39 172 -56 199 -8 12 -12 22 -9 22 3 0 -11 31 -30 70 -19 38 -35 73 -35 77 0
18 68 -107 97 -177z m-927 20 c0 -5 -2 -10 -4 -10 -3 0 -8 5 -11 10 -3 6 -1
10 4 10 6 0 11 -4 11 -10z m70 -164 c52 -2 60 -6 101 -47 103 -102 180 -227
179 -292 -1 -34 -22 -65 -91 -134 -191 -190 -468 -231 -718 -106 l-96 48 -9
64 c-17 121 29 353 73 368 55 18 105 50 124 79 l23 33 18 -29 c23 -40 50 -53
108 -51 68 1 137 33 151 70 10 28 11 28 46 14 19 -8 60 -16 91 -17z m960 -71
c0 -15 -6 -25 -15 -25 -12 0 -13 4 -3 25 6 14 13 25 15 25 1 0 3 -11 3 -25z
m-20 -117 c0 -13 -23 -5 -28 10 -2 7 2 10 12 6 9 -3 16 -11 16 -16z m40 -4 c0
-16 -16 -19 -25 -4 -8 13 4 32 16 25 5 -4 9 -13 9 -21z m-73 -30 c-9 -10 -38
16 -31 28 4 6 13 4 22 -6 9 -8 13 -19 9 -22z m178 5 c5 -5 -8 -9 -33 -9 -32 0
-42 4 -42 16 0 12 7 14 33 9 17 -4 36 -11 42 -16z m-215 -9 c0 -5 -4 -10 -10
-10 -5 0 -10 5 -10 10 0 6 5 10 10 10 6 0 10 -4 10 -10z m80 -26 c0 -14 -3
-14 -15 -4 -8 7 -15 14 -15 16 0 2 7 4 15 4 8 0 15 -7 15 -16z m211 -54 c52
-66 57 -80 44 -119 -10 -27 -13 -30 -19 -16 -3 10 -1 24 5 31 10 12 9 13 -5 8
-22 -9 -66 -85 -66 -115 0 -14 5 -30 12 -37 15 -15 4 -15 -77 -2 -33 6 -84 7
-112 4 l-53 -6 2 -42 1 -41 4 36 c4 35 6 37 49 42 25 2 64 0 87 -5 23 -5 73
-7 111 -4 l68 6 -26 -31 c-14 -17 -26 -41 -26 -53 0 -39 65 -86 120 -86 l32 0
-23 21 c-23 20 -22 20 9 -1 28 -19 37 -20 67 -10 19 6 35 16 35 21 0 28 27
-16 90 -144 46 -92 68 -148 64 -160 -4 -12 -2 -17 4 -13 6 4 16 -2 21 -13 20
-37 59 -153 48 -142 -14 14 -107 15 -107 1 0 -5 9 -10 20 -10 11 0 20 -4 20
-10 0 -5 -9 -14 -20 -20 -24 -13 -26 -30 -5 -30 8 0 15 -6 15 -14 0 -7 9 -25
21 -40 11 -14 16 -26 10 -26 -6 0 -15 9 -21 20 -13 23 -30 26 -30 5 0 -22 -33
-35 -88 -35 -47 0 -50 2 -45 23 4 19 3 20 -7 5 -11 -18 -62 -45 -95 -50 -17
-2 -20 2 -18 27 l2 30 -11 -32 c-6 -18 -17 -33 -24 -33 -7 0 -11 6 -8 14 3 8
0 17 -6 21 -6 3 -10 3 -9 -2 1 -4 1 -16 0 -27 -1 -16 -3 -17 -18 -5 -15 12
-16 12 -11 -2 5 -13 -1 -18 -24 -23 -16 -3 -35 -3 -41 1 -6 3 -7 1 -3 -5 4 -7
-12 -17 -45 -26 -28 -9 -72 -27 -96 -41 -52 -29 -54 -29 -48 -12 4 8 -5 12
-27 12 -37 0 -48 -10 -48 -42 0 -13 -5 -23 -11 -23 -7 0 -9 10 -5 26 5 17 3
23 -4 19 -7 -4 -10 31 -10 105 0 101 2 112 17 106 16 -6 16 -6 0 12 -9 10 -17
24 -17 30 0 15 -1 15 -58 -7 -52 -21 -282 -75 -288 -68 -3 2 46 16 109 31 62
15 140 37 172 51 l60 24 3 55 c2 38 7 56 16 56 17 0 42 -29 54 -59 5 -14 11
-20 14 -15 7 13 -11 76 -20 70 -5 -3 -14 -1 -22 4 -12 7 -12 12 -2 22 9 9 12
9 12 -2 0 -7 3 -11 6 -8 3 4 -2 20 -10 37 -9 16 -16 32 -16 34 0 2 20 -1 44
-7 28 -7 53 -22 66 -39 12 -16 25 -26 28 -22 3 3 -7 18 -22 33 -25 27 -26 30
-11 58 18 34 20 75 4 91 -8 8 -6 14 7 21 32 16 74 23 74 12 0 -5 -10 -10 -22
-10 -30 0 -54 -15 -39 -24 6 -4 17 -4 24 0 6 4 9 3 4 -1 -4 -5 14 -24 40 -42
49 -35 123 -109 123 -123 0 -4 7 -10 15 -14 18 -7 20 5 3 22 -17 17 -4 15 34
-7 18 -10 49 -21 68 -24 35 -6 35 -6 -8 13 -24 11 -41 24 -38 29 3 5 -2 15
-12 22 -15 13 -16 12 -3 -3 7 -10 9 -18 4 -18 -14 0 -32 21 -28 34 4 12 -106
106 -125 106 -10 0 -10 -3 0 -15 7 -8 17 -15 22 -15 14 0 100 -72 93 -78 -3
-3 -18 6 -33 19 -15 14 -47 40 -71 57 -25 18 -41 32 -35 33 5 1 -2 5 -16 9
l-25 8 28 1 28 1 -20 21 c-11 12 -24 18 -29 15 -6 -3 -17 1 -25 9 -20 19 -27
19 -27 0 0 -8 -7 -15 -16 -15 -8 0 -13 -4 -10 -8 9 -16 -10 -32 -44 -36 -57
-7 -69 -16 -72 -49 -3 -30 -5 -32 -43 -31 -21 1 -41 7 -43 13 -6 17 -58 41
-90 41 -16 0 -41 9 -55 20 -14 11 -35 20 -48 20 -20 0 -19 -3 14 -35 21 -20
37 -41 37 -46 0 -17 -13 -7 -54 38 l-38 43 124 133 c67 73 133 146 145 162
l22 30 -6 -52 c-4 -36 -2 -53 5 -53 16 0 25 42 18 89 -4 29 -1 43 11 53 15 12
16 10 9 -15 -4 -19 -3 -26 4 -22 5 3 10 13 10 21 0 11 9 13 39 8 22 -3 47 -1
57 5 16 9 13 10 -21 11 -92 1 -112 29 -22 31 51 1 51 1 14 9 -50 9 -57 19 -29
39 53 37 77 62 65 68 -7 2 -13 9 -13 14 0 5 12 2 26 -7 25 -17 26 -16 56 13
l30 31 -41 7 c-22 4 -41 11 -41 17 0 10 51 5 85 -8 8 -3 21 6 31 21 9 14 20
22 23 18 4 -4 23 -28 42 -53z m-248 -13 c-8 -14 -33 22 -33 47 0 18 3 17 19
-8 11 -17 17 -34 14 -39z m-39 -44 c8 -27 -9 -32 -18 -5 -3 9 -11 24 -17 33
-7 10 -9 24 -4 35 7 17 9 16 20 -11 7 -16 16 -40 19 -52z m-93 -20 c-9 -15
-10 -13 -11 14 0 17 3 40 8 50 5 14 8 11 10 -14 2 -18 -1 -41 -7 -50z m-20
-45 c9 1 24 -9 33 -23 14 -21 14 -25 2 -25 -10 0 -13 -6 -9 -17 5 -15 3 -14
-10 2 -16 19 -16 18 -17 -19 0 -39 -24 -78 -97 -156 l-33 -35 15 45 c14 39 14
43 1 30 -8 -8 -18 -30 -21 -49 -3 -19 -14 -46 -25 -61 -30 -42 -141 -140 -159
-140 -9 -1 -32 -10 -51 -20 -32 -18 -32 -19 -7 -14 37 8 34 -5 -7 -38 l-35
-28 -18 30 c-19 34 -33 39 -33 13 0 -25 -35 -80 -60 -93 -40 -22 -41 2 0 46
60 66 68 89 41 118 -12 13 -33 26 -46 28 -21 5 -23 2 -21 -42 1 -36 -5 -56
-29 -91 -36 -54 -47 -32 -15 32 18 34 21 52 15 94 l-6 52 113 75 c129 86 261
187 362 277 38 33 73 58 78 55 4 -3 8 -2 7 3 -1 4 0 13 1 18 2 6 6 -8 9 -30 4
-29 10 -39 22 -37z m449 -52 c0 -3 -4 -8 -10 -11 -5 -3 -10 -1 -10 4 0 6 5 11
10 11 6 0 10 -2 10 -4z m149 -156 c23 -23 41 -43 41 -46 0 -9 -65 29 -77 45
-12 16 -17 41 -9 41 3 0 23 -18 45 -40z m-1899 -220 c8 0 37 -16 64 -34 26
-19 72 -45 102 -57 30 -13 54 -29 54 -36 0 -7 -16 -34 -36 -60 -20 -27 -41
-58 -47 -70 -6 -13 -15 -23 -21 -23 -13 0 -123 120 -148 162 -17 27 -17 29 2
48 27 27 25 36 -8 43 -40 8 -77 40 -69 60 5 14 11 13 49 -8 24 -14 50 -25 58
-25z m638 -92 c-12 -21 -13 -17 -16 41 -2 45 1 67 10 72 18 12 23 -83 6 -113z
m-72 8 c-10 -38 -33 -32 -38 10 -3 25 1 38 11 44 21 12 36 -19 27 -54z m934 9
c0 -5 -4 -4 -9 4 -5 8 -14 10 -22 5 -11 -6 -11 -4 0 10 11 13 16 14 22 4 5 -7
9 -17 9 -23z m-1605 -33 c20 4 29 -3 59 -51 19 -31 53 -74 76 -95 22 -22 40
-49 40 -60 0 -17 2 -18 9 -7 13 20 41 -3 42 -33 0 -21 0 -21 9 2 5 12 17 22
26 22 12 0 15 -7 12 -30 -3 -17 -1 -33 4 -36 4 -3 8 4 8 16 0 12 5 18 10 15 6
-3 10 -18 10 -33 0 -19 3 -23 9 -13 18 28 18 -6 0 -59 -10 -30 -19 -70 -19
-87 0 -49 -15 -40 -26 17 -9 44 -8 51 10 70 11 11 15 20 9 20 -7 0 -15 -4 -18
-10 -12 -19 -27 -10 -21 13 5 22 4 22 -73 19 -88 -4 -181 18 -213 50 -30 30
-32 15 -1 -18 l27 -29 -90 -6 c-83 -6 -154 -3 -154 8 0 2 4 12 10 22 8 16 15
17 52 9 58 -13 128 -16 122 -6 -3 5 -10 5 -16 2 -7 -5 -9 -1 -5 9 4 12 1 15
-16 11 -30 -6 -117 7 -117 17 0 5 7 6 15 3 9 -4 18 1 21 11 4 11 14 15 28 12
11 -3 30 -1 41 4 17 8 16 9 -8 6 -23 -4 -25 -2 -15 11 11 13 10 15 -5 9 -11
-4 -24 -1 -33 8 -9 8 -11 15 -5 15 6 0 15 10 21 23 11 21 10 21 -4 3 -25 -32
-18 -4 9 36 14 20 25 41 25 46 0 5 10 22 21 37 16 19 28 26 46 22 23 -4 23 -4
6 16 -18 20 -18 20 10 2 15 -10 38 -15 52 -13z m1193 -20 c21 -28 -5 -27 -60
3 -52 28 -64 28 -54 -2 8 -24 63 -59 106 -68 64 -13 131 -47 128 -64 -2 -9
-13 -17 -26 -19 -39 -6 -88 17 -147 68 -31 28 -57 50 -59 50 -1 0 -2 -18 -1
-40 2 -64 39 -93 159 -125 48 -12 60 -35 20 -35 -28 0 -110 27 -166 55 -26 13
-28 13 -28 -8 0 -31 34 -84 59 -92 47 -15 10 -31 -121 -51 -35 -6 -39 -9 -23
-16 15 -6 11 -7 -12 -3 -49 7 -93 -4 -93 -25 0 -9 2 -19 5 -22 9 -8 103 11
207 43 58 18 103 27 111 22 7 -4 38 -35 67 -68 30 -33 62 -63 72 -67 10 -4 36
-26 58 -49 22 -23 40 -38 40 -34 0 5 -10 19 -22 32 l-21 23 21 0 c16 0 23 -8
28 -35 3 -19 17 -45 30 -58 38 -36 31 -152 -12 -197 -8 -8 -24 -27 -35 -42
-25 -34 -39 -36 -32 -5 3 12 3 19 0 16 -4 -3 -8 -16 -10 -30 -2 -17 -17 -31
-53 -49 -43 -22 -62 -25 -149 -25 -119 1 -222 30 -217 62 2 10 6 32 8 48 l5
30 -21 -32 c-12 -18 -27 -33 -32 -33 -6 0 -5 -7 3 -16 12 -15 3 -15 -101 -9
-135 8 -147 10 -160 35 -8 15 -1 25 44 58 29 22 56 50 59 62 4 17 3 19 -9 9
-7 -6 -11 -16 -7 -23 4 -7 1 -7 -7 1 -10 9 -21 6 -49 -18 -39 -31 -78 -38 -87
-14 -4 8 -1 22 6 30 20 25 4 28 -18 5 -25 -27 -42 -19 -42 20 0 16 -4 51 -9
77 -6 26 -12 89 -15 138 -3 50 -9 113 -12 141 -6 49 -5 52 20 58 22 5 26 12
26 42 0 21 4 33 10 29 6 -3 10 -15 10 -27 0 -17 2 -18 15 -8 13 11 18 10 30
-6 8 -10 15 -32 15 -48 0 -24 2 -27 15 -16 8 7 15 19 15 27 0 7 10 25 23 39
l23 24 -1 -26 c0 -14 -8 -32 -19 -39 -19 -15 -14 -35 10 -35 8 0 14 9 14 20 0
11 5 20 10 20 6 0 10 -7 10 -15 0 -8 7 -15 15 -15 9 0 15 9 15 22 0 12 3 18 7
15 3 -4 15 0 25 10 22 20 23 66 2 88 -22 21 -11 29 35 27 33 -2 44 3 80 39 22
23 41 46 42 53 0 6 27 34 61 62 l60 51 47 -13 c25 -8 52 -22 59 -32z m-688 19
c0 -12 -28 -22 -34 -12 -3 5 -3 11 1 15 9 9 33 7 33 -3z m860 -77 c0 -13 -5
-24 -11 -24 -12 0 -39 61 -39 87 1 29 50 -33 50 -63z m-680 62 c0 -2 -3 -11
-6 -20 -9 -23 -24 -20 -24 4 0 11 7 20 15 20 8 0 15 -2 15 -4z m50 -25 c0 -20
-27 -48 -37 -37 -9 8 14 56 27 56 5 0 10 -8 10 -19z m-355 -29 c-3 -3 -11 0
-18 7 -9 10 -8 11 6 5 10 -3 15 -9 12 -12z m183 1 c5 -18 -23 -16 -39 3 -11
14 -10 15 11 12 13 -1 25 -9 28 -15z m212 -12 c0 -12 -20 -25 -27 -18 -7 7 6
27 18 27 5 0 9 -4 9 -9z m690 -84 c0 -37 -25 -10 -28 29 -2 39 -2 39 13 14 8
-14 14 -33 15 -43z m-862 42 c-2 -6 -8 -10 -13 -10 -5 0 -11 4 -13 10 -2 6 4
11 13 11 9 0 15 -5 13 -11z m82 -18 c0 -6 -4 -13 -10 -16 -5 -3 -10 1 -10 9 0
9 5 16 10 16 6 0 10 -4 10 -9z m90 -11 c0 -5 -5 -10 -11 -10 -5 0 -7 5 -4 10
3 6 8 10 11 10 2 0 4 -4 4 -10z m-140 -30 c0 -5 -8 -10 -17 -10 -15 0 -16 2
-3 10 19 12 20 12 20 0z m730 -60 c12 -8 13 -11 1 -19 -14 -9 -51 -3 -51 8 0
21 26 27 50 11z m-710 -10 c0 -5 -4 -10 -10 -10 -5 0 -10 5 -10 10 0 6 5 10
10 10 6 0 10 -4 10 -10z m1598 -36 c21 -15 31 -44 14 -44 -5 0 -21 14 -37 30
-31 33 -17 42 23 14z m-848 -50 c0 -14 -8 -15 -47 -9 -71 10 -77 25 -10 25 46
0 57 -3 57 -16z m-1173 -124 c25 -97 102 -429 173 -740 22 -96 54 -233 71
-303 17 -71 29 -130 27 -133 -5 -4 -1989 -6 -1994 -1 -3 3 -26 107 -134 612
-33 154 -78 361 -99 460 -21 99 -38 181 -37 182 4 4 1357 20 1655 19 l314 -1
24 -95z m740 74 c-3 -3 -12 -4 -19 -1 -8 3 -5 6 6 6 11 1 17 -2 13 -5z m423
-69 c-14 -16 -50 -21 -50 -6 0 9 20 17 49 20 11 1 11 -2 1 -14z m-649 -490
c-17 -20 -31 -39 -31 -44 0 -4 -23 -11 -50 -14 -28 -3 -88 -22 -133 -42 -46
-19 -86 -35 -90 -35 -4 0 -1 13 7 29 17 32 63 74 108 97 35 18 138 42 187 43
l33 1 -31 -35z m-71 -105 c0 -5 -7 -10 -15 -10 -8 0 -15 5 -15 10 0 6 7 10 15
10 8 0 15 -4 15 -10z m12 -88 l-4 -49 -60 -11 c-34 -6 -80 -24 -107 -42 -57
-36 -61 -37 -61 -6 0 32 51 80 124 115 109 53 112 53 108 -7z m-228 -27 c-4
-8 -10 -15 -15 -15 -5 0 -9 7 -9 15 0 8 7 15 15 15 9 0 12 -6 9 -15z m226 -74
c0 -5 -25 -21 -55 -36 -32 -15 -71 -45 -92 -71 -21 -24 -41 -44 -45 -44 -14 0
-21 70 -8 85 34 41 200 96 200 66z m21 -84 l15 -33 -56 -26 c-30 -15 -74 -43
-97 -62 -22 -20 -44 -36 -47 -36 -17 0 -2 51 26 89 30 41 109 101 133 101 6 0
18 -15 26 -33z m-22 -148 c-41 -44 -88 -97 -105 -117 l-32 -37 -11 40 c-15 53
-14 75 3 75 7 0 24 10 37 23 49 47 133 95 173 97 4 0 -25 -36 -65 -81z"/>
<path d="M2730 3180 c0 -16 -74 -49 -147 -66 -40 -9 -100 -14 -145 -13 -81 3
-102 -3 -71 -20 19 -10 34 -39 67 -131 20 -56 32 -70 77 -98 62 -38 112 -27
184 39 52 48 75 109 75 200 0 34 5 59 11 61 8 3 6 10 -5 21 -19 19 -46 23 -46
7z m6 -72 c-2 -18 -10 -23 -36 -24 -24 -1 -29 1 -19 8 10 7 8 8 -9 5 -27 -6
-20 8 8 16 11 3 18 1 14 -4 -9 -15 14 -10 28 6 17 19 18 19 14 -7z m-3 -90
c-7 -17 -9 -14 -9 16 0 27 2 32 9 20 5 -10 5 -24 0 -36z m-180 -3 c-3 -9 -8
-14 -10 -11 -3 3 -2 9 2 15 9 16 15 13 8 -4z m-33 -23 c-6 -2 -10 -11 -10 -19
0 -9 -2 -14 -5 -11 -4 3 -3 18 1 33 5 20 9 23 15 13 5 -7 4 -14 -1 -16z m148
-6 c-7 -8 -15 -12 -17 -11 -5 6 10 25 20 25 5 0 4 -6 -3 -14z m62 1 c0 -2 -11
-18 -25 -37 -14 -19 -25 -31 -25 -27 0 5 10 21 22 37 20 27 28 35 28 27z m-62
-46 c-11 -18 -11 -23 0 -30 11 -6 10 -10 -4 -15 -9 -3 -19 -4 -22 -1 -3 3 0 5
6 5 8 0 9 7 1 26 -5 15 -7 29 -4 32 3 3 5 -1 5 -9 1 -10 4 -8 11 4 6 10 13 16
16 14 2 -3 -2 -15 -9 -26z m-143 -11 c-3 -25 1 -31 21 -36 13 -3 21 -10 18
-15 -3 -5 0 -9 5 -9 6 0 11 4 11 9 0 5 11 8 24 7 31 -1 25 -12 -11 -19 -18 -3
-36 1 -51 14 -14 10 -28 16 -33 13 -5 -3 -9 -2 -8 3 3 19 -2 27 -10 14 -6 -9
-8 -5 -8 13 0 23 1 24 12 10 11 -15 12 -15 18 5 8 31 17 26 12 -9z m41 -16 c8
3 14 1 14 -5 0 -16 -35 -6 -36 11 -1 10 0 11 3 2 3 -8 11 -11 19 -8z m51 -10
c-3 -3 -12 -4 -19 -1 -8 3 -5 6 6 6 11 1 17 -2 13 -5z"/>
<path d="M3715 2630 l-20 -9 20 0 c11 0 27 4 35 9 13 9 13 10 0 9 -8 0 -24 -4
-35 -9z"/>
<path d="M3680 2603 c0 -12 5 -25 10 -28 13 -8 13 15 0 35 -8 12 -10 11 -10
-7z"/>
<path d="M3750 2605 c-16 -19 0 -19 26 0 16 12 16 14 3 15 -9 0 -22 -7 -29
-15z"/>
<path d="M3780 2575 c-14 -8 -20 -14 -14 -15 5 0 19 7 30 15 24 18 16 19 -16
0z"/>
<path d="M3722 2560 c0 -14 2 -19 5 -12 2 6 2 18 0 25 -3 6 -5 1 -5 -13z"/>
<path d="M3741 2534 c0 -11 3 -14 6 -6 3 7 2 16 -1 19 -3 4 -6 -2 -5 -13z"/>
<path d="M3461 2487 c-6 -15 -13 -40 -16 -55 -4 -19 1 -15 16 16 11 24 18 49
16 55 -3 7 -10 -1 -16 -16z"/>
<path d="M3772 2490 c0 -14 2 -19 5 -12 2 6 2 18 0 25 -3 6 -5 1 -5 -13z"/>
<path d="M3591 2428 c2 -67 12 -99 27 -89 8 4 13 11 12 15 -1 3 1 19 5 36 4
19 1 37 -10 54 -25 37 -35 32 -34 -16z"/>
<path d="M3657 2429 c-8 -28 -9 -69 -2 -69 11 0 55 24 55 31 0 4 -7 9 -15 13
-9 3 -19 15 -24 28 l-8 22 -6 -25z"/>
<path d="M3810 2431 c0 -5 7 -15 17 -22 15 -13 15 -12 4 9 -12 23 -21 28 -21
13z"/>
<path d="M3523 2408 c-6 -7 -13 -31 -17 -53 l-6 -40 20 49 c20 51 21 67 3 44z"/>
<path d="M3898 2370 c-16 -19 -21 -30 -13 -30 8 0 20 -8 27 -18 11 -17 29 -22
112 -34 10 -2 21 3 24 11 3 9 0 11 -7 7 -20 -13 -71 3 -64 20 3 9 13 12 24 9
11 -4 19 -2 19 4 0 6 -3 10 -7 10 -23 -4 -35 3 -30 16 10 25 -9 25 -43 0 -43
-32 -46 -31 -20 5 12 17 18 30 13 30 -5 0 -20 -13 -35 -30z m62 -50 c0 -5 -5
-10 -11 -10 -5 0 -7 5 -4 10 3 6 8 10 11 10 2 0 4 -4 4 -10z"/>
<path d="M3830 2386 c0 -2 7 -7 16 -10 8 -3 12 -2 9 4 -6 10 -25 14 -25 6z"/>
<path d="M3679 2353 c-13 -15 -12 -15 9 -4 23 12 28 21 13 21 -5 0 -15 -7 -22
-17z"/>
<path d="M4084 2336 c11 -9 24 -16 30 -16 12 0 7 5 -24 19 -24 11 -24 11 -6
-3z"/>
<path d="M4086 2289 c10 -12 33 -31 49 -42 l30 -21 -19 23 c-20 22 -20 22 0
15 34 -12 6 8 -38 28 l-42 19 20 -22z"/>
<path d="M4259 2263 c-13 -16 -12 -17 4 -4 9 7 17 15 17 17 0 8 -8 3 -21 -13z"/>
<path d="M4279 2243 c-13 -16 -12 -17 4 -4 9 7 17 15 17 17 0 8 -8 3 -21 -13z"/>
<path d="M3790 2228 c0 -13 59 -78 64 -70 3 5 -10 24 -29 42 -19 19 -35 31
-35 28z"/>
<path d="M4173 2193 c9 -2 23 -2 30 0 6 3 -1 5 -18 5 -16 0 -22 -2 -12 -5z"/>
<path d="M4178 2153 c12 -2 32 -2 45 0 12 2 2 4 -23 4 -25 0 -35 -2 -22 -4z"/>
<path d="M4245 2130 c-25 -11 1 -11 35 0 20 6 21 8 5 8 -11 0 -29 -3 -40 -8z"/>
<path d="M4315 2090 c-13 -6 -15 -9 -5 -9 8 0 22 4 30 9 18 12 2 12 -25 0z"/>
<path d="M4258 2073 c6 -2 18 -2 25 0 6 3 1 5 -13 5 -14 0 -19 -2 -12 -5z"/>
<path d="M3766 2035 c-4 -10 6 -20 31 -30 19 -8 40 -15 45 -15 16 0 -12 30
-43 45 -23 13 -28 13 -33 0z"/>
<path d="M3860 2041 c0 -5 16 -21 35 -34 l36 -24 -23 -16 c-13 -8 -19 -18 -15
-23 4 -4 17 2 30 14 16 17 19 26 12 38 -14 21 -75 58 -75 45z"/>
<path d="M4030 2041 c0 -15 28 -33 40 -26 8 5 8 11 -1 21 -13 15 -39 19 -39 5z"/>
<path d="M3694 2005 c20 -14 41 -25 46 -25 14 0 13 -4 -11 -44 -11 -19 -19
-47 -17 -63 3 -24 7 -18 30 37 l27 65 -30 28 c-16 15 -41 27 -56 27 -25 0 -25
-1 11 -25z"/>
<path d="M3980 2010 c6 -11 18 -20 27 -20 14 0 14 2 -2 20 -10 11 -22 20 -27
20 -5 0 -4 -9 2 -20z"/>
<path d="M4075 1982 c-8 -38 -1 -52 13 -25 5 10 6 27 2 38 -6 17 -8 15 -15
-13z"/>
<path d="M3640 1990 c0 -5 7 -13 15 -18 13 -7 14 -14 5 -36 -12 -34 -13 -79
-1 -72 16 10 24 105 11 121 -14 17 -30 20 -30 5z"/>
<path d="M3980 1970 c0 -5 4 -10 9 -10 6 0 13 5 16 10 3 6 -1 10 -9 10 -9 0
-16 -4 -16 -10z"/>
<path d="M3824 1959 c-24 -12 -48 -51 -58 -94 -7 -30 -7 -30 19 8 14 20 23 43
19 49 -5 7 -2 9 7 6 8 -3 22 5 32 18 19 26 14 29 -19 13z"/>
<path d="M3945 1940 c-13 -15 -15 -24 -8 -31 12 -12 25 3 30 34 4 22 0 22 -22
-3z"/>
<path d="M3618 1934 c-5 -4 -8 -25 -8 -48 0 -28 3 -37 11 -29 6 6 9 27 7 48
-2 20 -6 33 -10 29z"/>
<path d="M3851 1916 c-9 -10 -8 -15 3 -19 16 -7 26 1 26 20 0 17 -14 17 -29
-1z"/>
<path d="M3831 1873 c-1 -6 -4 -20 -7 -30 -5 -17 -5 -17 6 0 6 10 9 23 6 30
-3 9 -5 9 -5 0z"/>
<path d="M3471 2777 c-9 -27 -10 -42 -3 -49 13 -13 26 28 20 63 -3 21 -5 19
-17 -14z"/>
<path d="M2220 2115 c0 -5 5 -17 10 -25 5 -8 10 -10 10 -5 0 6 -5 17 -10 25
-5 8 -10 11 -10 5z"/>
<path d="M2055 2059 c-18 -7 -18 -8 -2 -8 11 -1 30 -10 44 -21 28 -22 43 -25
43 -10 0 5 -11 12 -25 16 -14 3 -29 12 -33 19 -4 8 -14 10 -27 4z"/>
<path d="M2188 2063 c6 -2 18 -2 25 0 6 3 1 5 -13 5 -14 0 -19 -2 -12 -5z"/>
<path d="M2240 2010 c0 -13 11 -13 30 0 12 8 11 10 -7 10 -13 0 -23 -4 -23
-10z"/>
<path d="M2304 1965 c-10 -8 -14 -15 -8 -15 6 0 17 7 24 15 16 19 9 19 -16 0z"/>
<path d="M2705 1957 c-11 -7 -20 -16 -21 -22 0 -5 -5 -21 -11 -35 -6 -14 -14
-36 -18 -50 -6 -19 -5 -22 5 -13 7 6 15 26 19 45 6 28 11 33 34 31 24 -2 27 2
27 28 0 32 -5 34 -35 16z"/>
<path d="M2727 1865 c-10 -21 -16 -40 -13 -42 8 -8 38 46 34 63 -2 11 -9 5
-21 -21z"/>
<path d="M2778 1840 c-10 -24 -16 -45 -14 -48 8 -7 37 59 34 76 -2 10 -10 -2
-20 -28z"/>
<path d="M2820 1833 c-8 -21 -17 -42 -19 -48 -2 -5 3 -3 11 5 18 17 40 80 29
80 -4 0 -13 -17 -21 -37z"/>
<path d="M2875 1799 c-30 -65 -30 -68 0 -26 14 21 25 45 23 54 -2 9 -11 -2
-23 -28z"/>
<path d="M2928 1805 c-3 -11 -9 -33 -12 -50 l-6 -30 16 28 c8 16 14 38 12 50
-4 21 -4 21 -10 2z"/>
<path d="M3390 1766 c41 -43 87 -76 107 -76 4 0 -3 8 -16 18 -13 9 -40 31 -60
47 -66 56 -76 59 -31 11z"/>
<path d="M3220 1760 c62 -47 120 -68 120 -41 0 10 -104 61 -126 61 -17 0 -16
-3 6 -20z"/>
<path d="M2691 1722 c-1 -33 3 -51 9 -47 12 7 12 52 0 80 -6 15 -9 6 -9 -33z"/>
<path d="M2751 1695 c0 -27 4 -57 9 -65 12 -19 12 52 0 90 -6 20 -8 15 -9 -25z"/>
<path d="M2826 1683 c23 -38 41 -58 45 -51 9 13 -16 51 -56 88 -25 22 -23 18
11 -37z"/>
<path d="M2867 1704 c9 -14 22 -47 29 -72 11 -45 12 -46 19 -20 5 21 0 39 -19
73 -15 25 -31 45 -37 45 -5 0 -2 -12 8 -26z"/>
<path d="M2924 1685 c4 -16 14 -37 23 -45 13 -13 12 -9 -1 24 -21 50 -31 60
-22 21z"/>
<path d="M3072 1686 c7 -8 15 -12 17 -11 5 6 -10 25 -20 25 -5 0 -4 -6 3 -14z"/>
<path d="M3190 1676 c0 -3 15 -14 34 -23 18 -10 52 -28 75 -41 22 -12 41 -20
41 -18 0 3 -15 21 -32 40 -24 26 -45 37 -75 42 -24 4 -43 4 -43 0z"/>
<path d="M3035 1606 c17 -8 32 -12 34 -10 7 6 -2 11 -34 17 l-30 6 30 -13z"/>
<path d="M3080 1593 c0 -14 9 -18 36 -20 41 -2 41 -2 -3 21 -31 16 -33 16 -33
-1z"/>
<path d="M2935 1550 c-13 -20 -46 -113 -41 -117 7 -7 57 99 54 115 -3 15 -5
15 -13 2z"/>
<path d="M3065 1541 c-26 -11 -63 -62 -57 -79 3 -10 11 -7 28 9 13 12 24 28
24 35 0 6 7 18 16 25 15 12 18 11 28 -5 21 -36 46 -56 71 -56 35 0 31 21 -9
47 -42 27 -75 35 -101 24z"/>
<path d="M3570 1525 c0 -8 5 -15 10 -15 6 0 10 7 10 15 0 8 -4 15 -10 15 -5 0
-10 -7 -10 -15z"/>
<path d="M3500 1505 c0 -15 29 -35 51 -35 7 0 2 11 -11 25 -27 28 -40 32 -40
10z"/>
<path d="M3380 1501 c8 -6 11 -11 5 -12 -10 -1 83 -28 98 -29 22 0 -9 21 -44
30 -22 6 -48 14 -57 16 -15 5 -15 4 -2 -5z"/>
<path d="M3268 1483 c7 -3 16 -2 19 1 4 3 -2 6 -13 5 -11 0 -14 -3 -6 -6z"/>
<path d="M3097 1421 c-4 -16 6 -25 47 -45 66 -32 88 -38 106 -26 11 7 9 11
-11 19 -15 5 -49 23 -76 40 -59 37 -59 37 -66 12z"/>
<path d="M3447 1424 c-4 -4 -7 -17 -7 -28 1 -19 1 -20 11 -3 11 19 8 43 -4 31z"/>
<path d="M3288 1413 c7 -3 16 -2 19 1 4 3 -2 6 -13 5 -11 0 -14 -3 -6 -6z"/>
<path d="M1388 1544 c-30 -16 -43 -49 -36 -89 6 -28 8 -28 -50 -15 -68 16
-117 -1 -142 -50 -28 -55 -26 -122 6 -190 62 -133 110 -163 266 -166 96 -2
111 0 140 19 34 24 63 65 73 109 6 24 3 29 -28 42 -20 8 -43 26 -53 41 -14 22
-15 32 -5 65 7 23 19 41 31 45 11 4 20 10 20 15 0 42 -53 73 -125 74 l-51 0
13 27 c17 33 7 89 -16 89 -9 -1 -28 -7 -43 -16z m52 -27 c0 -31 -27 -67 -51
-67 -26 0 -26 43 1 70 27 27 50 26 50 -3z m-40 -107 c95 8 150 5 165 -11 15
-15 15 -18 -9 -42 -36 -36 -36 -94 -1 -136 14 -16 35 -33 45 -36 35 -11 7 -81
-46 -116 -23 -15 -42 -17 -118 -13 -121 7 -130 9 -172 47 -72 63 -112 188 -84
264 18 48 37 56 115 48 39 -4 86 -6 105 -5z"/>
</g>
</svg>
